<mxfile host="app.diagrams.net" agent="Mozilla/5.0 (Windows NT 10.0; Win64; x64) AppleWebKit/537.36 (KHTML, like Gecko) Chrome/131.0.0.0 Safari/537.36" version="25.0.3">
  <diagram name="第 1 页" id="8f15Zyi8x84okgb8SEgH">
    <mxGraphModel dx="1434" dy="790" grid="1" gridSize="10" guides="1" tooltips="1" connect="1" arrows="1" fold="1" page="1" pageScale="1" pageWidth="827" pageHeight="1169" math="0" shadow="0">
      <root>
        <mxCell id="0" />
        <mxCell id="1" parent="0" />
        <mxCell id="5FzmEWzDpmraRiyy6pU8-8" style="edgeStyle=none;rounded=0;orthogonalLoop=1;jettySize=auto;html=1;entryX=0;entryY=0.5;entryDx=0;entryDy=0;" edge="1" parent="1" source="5FzmEWzDpmraRiyy6pU8-1" target="5FzmEWzDpmraRiyy6pU8-7">
          <mxGeometry relative="1" as="geometry" />
        </mxCell>
        <mxCell id="5FzmEWzDpmraRiyy6pU8-1" value="家族企业" style="rounded=1;whiteSpace=wrap;html=1;" vertex="1" parent="1">
          <mxGeometry x="160" y="60" width="120" height="60" as="geometry" />
        </mxCell>
        <mxCell id="5FzmEWzDpmraRiyy6pU8-9" style="edgeStyle=none;rounded=0;orthogonalLoop=1;jettySize=auto;html=1;" edge="1" parent="1" source="5FzmEWzDpmraRiyy6pU8-2" target="5FzmEWzDpmraRiyy6pU8-7">
          <mxGeometry relative="1" as="geometry" />
        </mxCell>
        <mxCell id="5FzmEWzDpmraRiyy6pU8-2" value="家族企业" style="rounded=1;whiteSpace=wrap;html=1;" vertex="1" parent="1">
          <mxGeometry x="320" y="60" width="120" height="60" as="geometry" />
        </mxCell>
        <mxCell id="5FzmEWzDpmraRiyy6pU8-3" value="家族企业" style="rounded=1;whiteSpace=wrap;html=1;" vertex="1" parent="1">
          <mxGeometry x="480" y="60" width="120" height="60" as="geometry" />
        </mxCell>
        <mxCell id="5FzmEWzDpmraRiyy6pU8-5" value="投资管理有限公司" style="rounded=1;whiteSpace=wrap;html=1;" vertex="1" parent="1">
          <mxGeometry x="160" y="250" width="120" height="60" as="geometry" />
        </mxCell>
        <mxCell id="5FzmEWzDpmraRiyy6pU8-32" style="edgeStyle=none;rounded=0;orthogonalLoop=1;jettySize=auto;html=1;exitX=1;exitY=0.5;exitDx=0;exitDy=0;entryX=0.5;entryY=1;entryDx=0;entryDy=0;" edge="1" parent="1" source="5FzmEWzDpmraRiyy6pU8-6" target="5FzmEWzDpmraRiyy6pU8-31">
          <mxGeometry relative="1" as="geometry" />
        </mxCell>
        <mxCell id="5FzmEWzDpmraRiyy6pU8-36" style="edgeStyle=none;rounded=0;orthogonalLoop=1;jettySize=auto;html=1;exitX=1;exitY=0.75;exitDx=0;exitDy=0;entryX=0;entryY=0.5;entryDx=0;entryDy=0;" edge="1" parent="1" source="5FzmEWzDpmraRiyy6pU8-6" target="5FzmEWzDpmraRiyy6pU8-34">
          <mxGeometry relative="1" as="geometry" />
        </mxCell>
        <mxCell id="5FzmEWzDpmraRiyy6pU8-37" style="edgeStyle=none;rounded=0;orthogonalLoop=1;jettySize=auto;html=1;exitX=1;exitY=0.75;exitDx=0;exitDy=0;entryX=0;entryY=0.75;entryDx=0;entryDy=0;" edge="1" parent="1" source="5FzmEWzDpmraRiyy6pU8-6" target="5FzmEWzDpmraRiyy6pU8-33">
          <mxGeometry relative="1" as="geometry" />
        </mxCell>
        <mxCell id="5FzmEWzDpmraRiyy6pU8-38" style="edgeStyle=none;rounded=0;orthogonalLoop=1;jettySize=auto;html=1;exitX=1;exitY=0.75;exitDx=0;exitDy=0;entryX=0;entryY=0.75;entryDx=0;entryDy=0;" edge="1" parent="1" source="5FzmEWzDpmraRiyy6pU8-6" target="5FzmEWzDpmraRiyy6pU8-35">
          <mxGeometry relative="1" as="geometry" />
        </mxCell>
        <mxCell id="5FzmEWzDpmraRiyy6pU8-6" value="有限合伙企业" style="rounded=1;whiteSpace=wrap;html=1;" vertex="1" parent="1">
          <mxGeometry x="480" y="250" width="120" height="60" as="geometry" />
        </mxCell>
        <mxCell id="5FzmEWzDpmraRiyy6pU8-12" style="edgeStyle=none;rounded=0;orthogonalLoop=1;jettySize=auto;html=1;entryX=0.5;entryY=0;entryDx=0;entryDy=0;" edge="1" parent="1" source="5FzmEWzDpmraRiyy6pU8-7" target="5FzmEWzDpmraRiyy6pU8-5">
          <mxGeometry relative="1" as="geometry" />
        </mxCell>
        <mxCell id="5FzmEWzDpmraRiyy6pU8-14" style="edgeStyle=none;rounded=0;orthogonalLoop=1;jettySize=auto;html=1;entryX=0.5;entryY=0;entryDx=0;entryDy=0;" edge="1" parent="1" source="5FzmEWzDpmraRiyy6pU8-7" target="5FzmEWzDpmraRiyy6pU8-6">
          <mxGeometry relative="1" as="geometry" />
        </mxCell>
        <mxCell id="5FzmEWzDpmraRiyy6pU8-15" style="edgeStyle=none;rounded=0;orthogonalLoop=1;jettySize=auto;html=1;exitX=0.5;exitY=1;exitDx=0;exitDy=0;" edge="1" parent="1" source="5FzmEWzDpmraRiyy6pU8-7" target="5FzmEWzDpmraRiyy6pU8-16">
          <mxGeometry relative="1" as="geometry">
            <mxPoint x="380" y="450" as="targetPoint" />
          </mxGeometry>
        </mxCell>
        <mxCell id="5FzmEWzDpmraRiyy6pU8-7" value="" style="ellipse;whiteSpace=wrap;html=1;" vertex="1" parent="1">
          <mxGeometry x="320" y="160" width="120" height="80" as="geometry" />
        </mxCell>
        <mxCell id="5FzmEWzDpmraRiyy6pU8-10" style="edgeStyle=none;rounded=0;orthogonalLoop=1;jettySize=auto;html=1;entryX=1.025;entryY=0.413;entryDx=0;entryDy=0;entryPerimeter=0;" edge="1" parent="1" source="5FzmEWzDpmraRiyy6pU8-3" target="5FzmEWzDpmraRiyy6pU8-7">
          <mxGeometry relative="1" as="geometry" />
        </mxCell>
        <mxCell id="5FzmEWzDpmraRiyy6pU8-22" style="edgeStyle=none;rounded=0;orthogonalLoop=1;jettySize=auto;html=1;exitX=0.5;exitY=1;exitDx=0;exitDy=0;entryX=0.5;entryY=0;entryDx=0;entryDy=0;" edge="1" parent="1" source="5FzmEWzDpmraRiyy6pU8-16" target="5FzmEWzDpmraRiyy6pU8-19">
          <mxGeometry relative="1" as="geometry" />
        </mxCell>
        <mxCell id="5FzmEWzDpmraRiyy6pU8-24" style="edgeStyle=none;rounded=0;orthogonalLoop=1;jettySize=auto;html=1;exitX=0.5;exitY=1;exitDx=0;exitDy=0;entryX=0.5;entryY=0;entryDx=0;entryDy=0;" edge="1" parent="1" source="5FzmEWzDpmraRiyy6pU8-16" target="5FzmEWzDpmraRiyy6pU8-21">
          <mxGeometry relative="1" as="geometry" />
        </mxCell>
        <mxCell id="5FzmEWzDpmraRiyy6pU8-25" style="edgeStyle=none;rounded=0;orthogonalLoop=1;jettySize=auto;html=1;exitX=0.5;exitY=1;exitDx=0;exitDy=0;entryX=0.5;entryY=0;entryDx=0;entryDy=0;" edge="1" parent="1" source="5FzmEWzDpmraRiyy6pU8-16" target="5FzmEWzDpmraRiyy6pU8-20">
          <mxGeometry relative="1" as="geometry" />
        </mxCell>
        <mxCell id="5FzmEWzDpmraRiyy6pU8-16" value="投资合伙企业" style="rounded=1;whiteSpace=wrap;html=1;" vertex="1" parent="1">
          <mxGeometry x="320" y="420" width="120" height="60" as="geometry" />
        </mxCell>
        <mxCell id="5FzmEWzDpmraRiyy6pU8-18" value="" style="rhombus;whiteSpace=wrap;html=1;" vertex="1" parent="1">
          <mxGeometry x="240" y="190" width="60" height="60" as="geometry" />
        </mxCell>
        <mxCell id="5FzmEWzDpmraRiyy6pU8-19" value="技术公司" style="ellipse;whiteSpace=wrap;html=1;" vertex="1" parent="1">
          <mxGeometry x="140" y="610" width="120" height="80" as="geometry" />
        </mxCell>
        <mxCell id="5FzmEWzDpmraRiyy6pU8-20" value="销售公司" style="ellipse;whiteSpace=wrap;html=1;" vertex="1" parent="1">
          <mxGeometry x="320" y="610" width="120" height="80" as="geometry" />
        </mxCell>
        <mxCell id="5FzmEWzDpmraRiyy6pU8-21" value="生产公司" style="ellipse;whiteSpace=wrap;html=1;" vertex="1" parent="1">
          <mxGeometry x="500" y="610" width="120" height="80" as="geometry" />
        </mxCell>
        <mxCell id="5FzmEWzDpmraRiyy6pU8-27" value="产业层" style="shape=hexagon;perimeter=hexagonPerimeter2;whiteSpace=wrap;html=1;fixedSize=1;" vertex="1" parent="1">
          <mxGeometry x="10" y="600" width="120" height="80" as="geometry" />
        </mxCell>
        <mxCell id="5FzmEWzDpmraRiyy6pU8-28" value="资本层" style="shape=hexagon;perimeter=hexagonPerimeter2;whiteSpace=wrap;html=1;fixedSize=1;" vertex="1" parent="1">
          <mxGeometry y="410" width="120" height="80" as="geometry" />
        </mxCell>
        <mxCell id="5FzmEWzDpmraRiyy6pU8-29" value="投资层" style="shape=hexagon;perimeter=hexagonPerimeter2;whiteSpace=wrap;html=1;fixedSize=1;" vertex="1" parent="1">
          <mxGeometry y="240" width="120" height="80" as="geometry" />
        </mxCell>
        <mxCell id="5FzmEWzDpmraRiyy6pU8-30" value="控制层" style="shape=hexagon;perimeter=hexagonPerimeter2;whiteSpace=wrap;html=1;fixedSize=1;" vertex="1" parent="1">
          <mxGeometry y="50" width="120" height="80" as="geometry" />
        </mxCell>
        <mxCell id="5FzmEWzDpmraRiyy6pU8-31" value="持股层" style="rhombus;whiteSpace=wrap;html=1;" vertex="1" parent="1">
          <mxGeometry x="580" y="160" width="50" height="50" as="geometry" />
        </mxCell>
        <mxCell id="5FzmEWzDpmraRiyy6pU8-33" value="" style="rounded=1;whiteSpace=wrap;html=1;" vertex="1" parent="1">
          <mxGeometry x="640" y="320" width="160" height="20" as="geometry" />
        </mxCell>
        <mxCell id="5FzmEWzDpmraRiyy6pU8-34" value="" style="rounded=1;whiteSpace=wrap;html=1;" vertex="1" parent="1">
          <mxGeometry x="640" y="290" width="160" height="20" as="geometry" />
        </mxCell>
        <mxCell id="5FzmEWzDpmraRiyy6pU8-35" value="" style="rounded=1;whiteSpace=wrap;html=1;" vertex="1" parent="1">
          <mxGeometry x="640" y="350" width="160" height="20" as="geometry" />
        </mxCell>
      </root>
    </mxGraphModel>
  </diagram>
</mxfile>
